PathFileType	4	(X/Y/Z)	Patient4_TMGait_0pt4_01_right_33.trc.trc
DataRate	CameraRate	NumFrames	NumMarkers	Units	OrigDataRate	OrigDataStartFrame	OrigNumFrames
75.268817204301	75.268817204301	4	33	mm	75.268817204301	89	       141
Frame#	Time	Sacral			L.Shoulder			Chest			R.Shoulder			Neck			R.ASIS			L.ASIS			R.Thigh.Superior			R.Thigh.Lateral			R.Thigh.Inferior			R.Patella			L.Thigh.Superior			L.Thigh.Lateral			L.Thigh.Inferior			L.Patella			L.Shank.Superior			L.Shank.Lateral			L.Shank.Inferior			R.Shank.Superior			R.Shank.Lateral			R.Shank.Inferior			R.Heel			R.Midfoot.Superior			R.Midfoot.Lateral			R.Toe			L.Heel			L.Midfoot.Lateral			L.Midfoot.Superior			L.Toe			L.Elbow			L.Wrist			R.Elbow			R.Wrist			
		X1	Y1	Z1	X2	Y2	Z2	X3	Y3	Z3	X4	Y4	Z4	X5	Y5	Z5	X6	Y6	Z6	X7	Y7	Z7	X8	Y8	Z8	X9	Y9	Z9	X10	Y10	Z10	X11	Y11	Z11	X12	Y12	Z12	X13	Y13	Z13	X14	Y14	Z14	X15	Y15	Z15	X16	Y16	Z16	X17	Y17	Z17	X18	Y18	Z18	X19	Y19	Z19	X20	Y20	Z20	X21	Y21	Z21	X22	Y22	Z22	X23	Y23	Z23	X24	Y24	Z24	X25	Y25	Z25	X26	Y26	Z26	X27	Y27	Z27	X28	Y28	Z28	X29	Y29	Z29	X30	Y30	Z30	X31	Y31	Z31	X32	Y32	Z32	X33	Y33	Z33	

89	44.019142857143	839.338154537872	1010.697974116402	469.342462514119	1013.470538110512	1428.923278250720	261.194465075765	1120.428595997389	1370.307783430705	422.908270474034	1041.720400658513	1452.028594806947	595.548747166916	996.744834443060	1498.942054276515	414.960858348002	1069.900796527180	950.617191617431	582.384871766388	1051.028357691320	960.054850240404	308.305007074124	1118.621669129640	750.870825733047	568.629353192836	1045.435359876438	640.125621763310	639.334154204559	1129.501444957961	582.568237694906	567.778939327003	1125.229205326034	474.690683384573	591.571910999063	1107.102328220337	757.840089880295	332.530227360880	1021.780374217740	637.149401280474	279.729005389670	1117.044713226924	566.420901112381	334.767618990426	1121.699932495287	497.713449124879	343.954391113631	1099.246755015467	423.872679859339	340.043300996733	1012.592460651301	303.006093479138	298.130708781978	1077.346795205201	197.220591598809	368.324753756292	1050.435971061155	405.383299910308	596.471937893902	931.459189890663	361.491551683962	657.980063138182	922.521447945722	251.633434011122	607.521208245334	723.296891583067	172.544053657217	579.843645124183	896.447890406637	133.005682801914	619.232531207060	788.154857689578	119.823386937441	653.337403972439	974.608720366937	35.729086756519	647.279197587547	960.022932181484	38.221937744748	419.288963311011	1033.756043873586	35.204113730180	337.972577874860	1116.675003388880	97.577508164230	363.218817052677	1245.537799233208	46.664141775389	337.460209831466	979.805038799478	1073.148062384090	156.923742746178	1061.033380825359	825.470217543257	147.357700236439	1058.060855394436	1112.632607899692	738.947470197612	1239.629155702839	926.754247446354	732.868064883887	
90	44.032428571429	838.101446945714	1010.550012578947	466.563319786069	1014.215828804515	1428.268377456444	257.681619156246	1119.481976200090	1370.305533611243	420.722600110479	1039.049367209374	1452.587817818366	592.320347723988	996.049275355190	1499.027532726603	411.039285824267	1068.434606957873	951.231384457369	580.820445466649	1050.399098802759	960.298935511938	306.590417126330	1122.644458477208	754.368157064065	566.691612566650	1053.395005966106	641.930345103031	637.979636715363	1139.149938826936	586.258232800856	566.595471385254	1136.997721981870	477.453029048748	590.824784581022	1104.921470858200	757.274079280117	330.462985507055	1018.667200756531	637.302208550316	277.899032797496	1113.252485198776	565.933571840803	333.009372805955	1117.280959557248	497.298519480843	342.230064656047	1094.685429989800	423.576609991938	338.544343215377	1007.524743682493	302.836716213778	297.202196236169	1072.242481431041	197.101154641478	367.553593644465	1060.984368261096	408.030478344072	595.560530935775	940.767174889928	366.884910673854	656.768544279993	929.276628398368	257.242393622798	606.647593086103	728.384533743409	183.922000073124	578.704235479249	900.345769807906	138.789616750510	618.370061767197	791.426474552144	128.951232736187	652.215697488593	975.413324003967	37.439291196059	646.607304399525	954.682691103093	38.244806385416	419.171308902470	1028.408039432592	35.154638035101	337.850838761217	1111.334197353132	97.579564715953	362.959396676487	1240.183915875736	46.679867545185	337.362569807073	987.170820286402	1072.611787752707	151.375820770464	1074.037638935029	826.835171986684	141.509789097348	1048.405356990289	1113.080919095091	736.525552715856	1218.964021441832	916.514972668115	732.623223997908	
91	44.045714285714	836.840054236843	1010.433388845491	464.059446236478	1014.675984890204	1427.550608191656	254.369773726670	1118.395835025939	1370.325933469744	418.644806849273	1036.362952200706	1453.180477889958	589.228372124759	995.295269732304	1499.096544500334	407.296699155544	1067.024276264677	951.839053396178	579.338712552855	1049.630663053586	960.634794922752	304.987852385296	1126.235732495981	757.975321209324	564.649110045784	1060.922602311668	644.047345593417	636.690339244933	1148.113023775443	590.270654448583	565.332143224263	1148.239490993297	480.704939031432	589.967788313936	1102.705240893211	756.779719264946	328.714943021343	1015.549214730976	637.460590255525	276.303934229901	1109.444000670199	565.453129665783	331.531336958468	1112.852318340658	496.903627913014	340.828108514656	1090.125782946868	423.319946461539	337.308464050512	1002.509410113851	302.724102407070	296.436023679380	1067.153778779228	197.008649129360	366.918272501053	1071.352381391268	410.959670493445	594.640806565362	950.158161172201	371.983865260132	655.581088049672	936.636012514949	262.553333160094	605.786627930662	734.558939632661	193.817575307539	577.616664914546	905.487835718418	144.274634279169	617.521072270499	796.118866710882	137.065462857682	651.140582147327	978.024041694744	39.592860523020	645.830888056193	949.351732825114	38.271435416491	419.061274380146	1023.073153449469	35.126179413801	337.743836091900	1106.000487796773	97.597969884398	362.726748153798	1234.834916966371	46.720124018052	337.256136662688	994.774294894190	1072.126364155781	146.132104857844	1087.001117803455	828.321113314338	135.891158009574	1038.496912315925	1113.672300024218	734.110089613896	1197.323749511111	907.099864075909	732.350959010000	
92	44.059000000000	835.561442575353	1010.397016749796	461.798287848111	1014.874147498143	1426.828123796324	251.261377320165	1117.204117903725	1370.401236113482	416.666520114152	1033.707254229481	1453.827308470232	586.276114703287	994.489649491227	1499.179312295756	403.746341558294	1065.662072339060	952.466909241713	577.913654527045	1048.772057284416	961.068551193243	303.480183827237	1129.343695217701	761.650881106745	562.525544813632	1067.889207997258	646.441401290376	635.462852122315	1156.275000353930	594.536671134407	563.992017597557	1158.801475953718	484.378566970338	589.013677516799	1100.462392914307	756.334817470913	327.228511501317	1012.397027324482	637.620911571819	274.928489308368	1105.599135674392	564.970934180810	330.303290803743	1108.392766302428	496.527447010156	339.716601616523	1085.548241648031	423.102918995594	336.307781675753	997.523569053764	302.663236575929	295.813840068109	1062.066431029235	196.941796712684	366.403987481978	1081.412437356531	414.110399384818	593.723516279642	959.529331352881	376.625987198045	654.452841810442	944.594493715525	267.359410790351	604.985699324530	741.811344132661	201.834207835009	576.666999469776	911.963535394162	149.176564889167	616.741181161369	802.304157965891	143.808123532359	650.201757927240	982.644549618734	42.015947597837	645.020229484782	944.021276848239	38.300659969967	418.959034255040	1017.744262804833	35.112397383979	337.650126760971	1100.669308605610	97.626208399225	362.519255120187	1229.486979564674	46.774792078475	337.148384492670	1002.530397763030	1071.759548750144	141.244422985102	1099.839681788561	829.979521147845	130.545809669688	1028.352932820263	1114.453380606818	731.694759145345	1174.836459141781	898.637321606659	732.071432723373	
